<svg width="2076" height="1182" xmlns="http://www.w3.org/2000/svg" xmlns:xlink="http://www.w3.org/1999/xlink" overflow="hidden"><defs><clipPath id="clip0"><rect x="1162" y="583" width="2076" height="1182"/></clipPath></defs><g clip-path="url(#clip0)" transform="translate(-1162 -583)"><rect x="1162" y="583" width="2076" height="1182" fill="#FFFFFF"/><path d="M1461.5 1174.5C1461.5 948.616 1662.75 765.5 1911 765.5 2159.25 765.5 2360.5 948.616 2360.5 1174.5 2360.5 1400.38 2159.25 1583.5 1911 1583.5 1662.75 1583.5 1461.5 1400.38 1461.5 1174.5Z" stroke="#000000" stroke-width="4.58333" stroke-miterlimit="8" fill="none" fill-rule="evenodd"/><path d="M2040.5 1174.5C2040.5 948.616 2241.75 765.5 2490 765.5 2738.25 765.5 2939.5 948.616 2939.5 1174.5 2939.5 1400.38 2738.25 1583.5 2490 1583.5 2241.75 1583.5 2040.5 1400.38 2040.5 1174.5Z" stroke="#000000" stroke-width="4.58333" stroke-miterlimit="8" fill="none" fill-rule="evenodd"/></g></svg>